<svg xmlns="http://www.w3.org/2000/svg" width="25.87" height="25.87" viewBox="0 0 25.87 25.87">
  <path id="Trazado_209" data-name="Trazado 209" d="M1614.9,1663.28a2.154,2.154,0,0,0,2.155,2.155h21.56a2.154,2.154,0,0,0,2.155-2.155v-21.56a2.154,2.154,0,0,0-2.155-2.155h-21.56a2.154,2.154,0,0,0-2.155,2.155v21.56Zm13.474-1.078v-8.624h-2.156v-3.234h2.156c0-5.557.237-5.929,7.007-5.929v3.234c-3.568,0-3.234.2-3.234,2.695h3.234v3.234h-3.234v8.624Z" transform="translate(-1614.904 -1639.565)" fill="#fff" fill-rule="evenodd"/>
</svg>
