<svg xmlns="http://www.w3.org/2000/svg" width="21.954" height="21.954" viewBox="0 0 21.954 21.954">
  <g id="Grupo_105" data-name="Grupo 105" transform="translate(-1652.859 -1641.523)">
    <path id="Trazado_210" data-name="Trazado 210" d="M1663.836,1646.79a5.665,5.665,0,1,0,5.665,5.666A5.677,5.677,0,0,0,1663.836,1646.79Zm0,9.295a3.629,3.629,0,1,1,3.629-3.629A3.646,3.646,0,0,1,1663.836,1656.085Z" fill="#fff"/>
    <circle id="Elipse_9" data-name="Elipse 9" cx="1.284" cy="1.284" r="1.284" transform="translate(1668.439 1645.374)" fill="#fff"/>
    <path id="Trazado_211" data-name="Trazado 211" d="M1673.042,1643.338a6.3,6.3,0,0,0-4.647-1.815h-9.118a6.063,6.063,0,0,0-6.418,6.418v9.074a6.366,6.366,0,0,0,1.859,4.736,6.457,6.457,0,0,0,4.6,1.726h9.029a6.538,6.538,0,0,0,4.648-1.726,6.338,6.338,0,0,0,1.815-4.692v-9.118A6.343,6.343,0,0,0,1673.042,1643.338Zm-.177,13.721a4.327,4.327,0,0,1-1.283,3.231,4.576,4.576,0,0,1-3.232,1.151h-9.029a4.572,4.572,0,0,1-3.231-1.151,4.448,4.448,0,0,1-1.195-3.275v-9.074a4.411,4.411,0,0,1,1.195-3.231,4.5,4.5,0,0,1,3.231-1.151h9.118a4.412,4.412,0,0,1,3.231,1.2,4.565,4.565,0,0,1,1.195,3.187v9.118Z" fill="#fff"/>
  </g>
</svg>
