<svg xmlns="http://www.w3.org/2000/svg" width="35.823" height="35.824" viewBox="0 0 35.823 35.824">
  <path id="Trazado_208" data-name="Trazado 208" d="M1673.631,247.482a5.162,5.162,0,1,1,3.651-1.512A5.113,5.113,0,0,1,1673.631,247.482Zm4.451.533.012.016a.072.072,0,0,0,.022.024l3.545,3.546a1.028,1.028,0,0,0,.731.3,1.016,1.016,0,0,0,.728-.3,1.033,1.033,0,0,0,0-1.46l-3.545-3.545a.247.247,0,0,0-.037-.031l-.006-.009-.016-.01-.015-.012a7.206,7.206,0,1,0-1.419,1.481Zm-3.168,13.4a17.876,17.876,0,1,1,6.973-1.41A17.773,17.773,0,0,1,1674.914,261.412Z" transform="translate(-1657.003 -225.588)" fill="#071d49"/>
</svg>
