<svg xmlns="http://www.w3.org/2000/svg" width="27" height="27" viewBox="0 0 27 27">
  <path id="Trazado_212" data-name="Trazado 212" d="M1711,1639h-20.25a3.375,3.375,0,0,0-3.375,3.375v20.25a3.375,3.375,0,0,0,3.375,3.375H1711a3.375,3.375,0,0,0,3.375-3.375v-20.25A3.375,3.375,0,0,0,1711,1639Zm-1.737,9.2c.008.186.012.372.012.56a12.307,12.307,0,0,1-18.947,10.368,8.586,8.586,0,0,0,1.032.061,8.681,8.681,0,0,0,5.375-1.852,4.332,4.332,0,0,1-4.042-3.006,4.325,4.325,0,0,0,1.954-.074,4.331,4.331,0,0,1-3.472-4.243v-.055a4.306,4.306,0,0,0,1.96.541,4.332,4.332,0,0,1-1.339-5.777,12.288,12.288,0,0,0,8.919,4.522,4.331,4.331,0,0,1,7.375-3.948,8.661,8.661,0,0,0,2.748-1.05,4.342,4.342,0,0,1-1.9,2.394,8.635,8.635,0,0,0,2.486-.681h0A8.791,8.791,0,0,1,1709.26,1648.2Z" transform="translate(-1687.372 -1639)" fill="#fff"/>
</svg>
