<svg xmlns="http://www.w3.org/2000/svg" width="302.089" height="128.432" viewBox="0 0 302.089 128.432">
  <g id="Grupo_2" data-name="Grupo 2" transform="translate(-211.191 -23.434)">
    <g id="Grupo_1" data-name="Grupo 1">
      <path id="Trazado_2" data-name="Trazado 2" d="M327.3,60.471h2.156V68c0,2.33,1.165,3.171,3.3,3.171,1.364,0,2.328-.817,2.328-2.576V60.471h2.086v7.658c0,3.047-1.763,4.733-5.161,4.733-2.921,0-4.7-1.389-4.7-4.188ZM350.7,72.862l-6.49-9.292v9.044h-1.984V60.471h2.183l6.171,9v-9h1.954V72.49Zm9.325-.248h-2.18V60.471h2.18Zm3.92-12.019,2.227-.372,3.495,10.061,3.395-9.813h2.2l-4.634,12.043-2.128.348Zm15.262-.124h7.6l-.193,1.611-5.232-.074v3.618h4.836l-.224,1.462-4.612-.074v4.014l5.777-.073-.2,1.659H379.2Zm14.371,7.113v5.03h-2.18V60.471h4.162c2.631,0,4.164,1.041,4.164,3.075a3.747,3.747,0,0,1-2.208,3.442l3.2,5.626H398.26l-2.552-5.079a7.41,7.41,0,0,1-1.017.073c-.274,0-.7-.024-1.116-.024m3.916-3.42c0-1.438-.819-2.229-2.655-2.229-.444,0-.865,0-1.261.023v4.115c.5.049,1.017.073,1.612.073,1.188,0,2.3-.52,2.3-1.982m7.116-.594c0-1.885,1.859-3.347,4.484-3.347a13.231,13.231,0,0,1,3.692.472l-.4,1.759a11.286,11.286,0,0,0-3.861-.694c-1.121,0-1.914.521-1.914,1.487s.72,1.512,2.678,2.281c3.1,1.214,3.737,2.129,3.737,3.717,0,2.155-2,3.666-5.128,3.666a13.624,13.624,0,0,1-3.566-.519l.421-1.834a11.322,11.322,0,0,0,4.136.767c1.067,0,2.059-.545,2.059-1.511,0-1.041-.545-1.685-2.8-2.552-2.5-.967-3.542-1.809-3.542-3.692m15.083,9.044h-2.181V60.471h2.181Zm9.5-12.143c3.737,0,6.146,2.058,6.146,5.7,0,4.086-3.1,6.441-7.14,6.441h-3.221V60.471ZM427.157,71c.544.048,1.388.075,2.13.075,1.936,0,3.817-1.116,3.817-4.536,0-3.221-2.082-4.535-4.61-4.535h-1.337Zm18.818-1.71h-4.756l-1.165,3.32H437.9l4.685-12.092,2.253-.3,4.634,12.391h-2.31Zm-2.4-6.765-1.811,5.179H445.4Zm14.05-2.058c3.741,0,6.143,2.058,6.143,5.7,0,4.086-3.1,6.441-7.135,6.441H453.41V60.471ZM455.59,71c.547.048,1.393.075,2.133.075,1.929,0,3.816-1.116,3.816-4.536,0-3.221-2.082-4.535-4.611-4.535H455.59Z" fill="#fff"/>
      <path id="Trazado_3" data-name="Trazado 3" d="M343.427,107.579,331.14,90v17.114h-3.752V84.136h4.128l11.675,17.02V84.136H346.9v22.742Zm24.891-6.75h-9l-2.2,6.283h-4.077L361.9,84.229l4.266-.561,8.767,23.444h-4.359Zm-4.546-12.8-3.424,9.8h6.894ZM397.5,105.938a17.191,17.191,0,0,1-7.361,1.641c-6.614,0-11.443-3.985-11.443-11.722,0-7.173,4.786-12.189,12.193-12.189a17.531,17.531,0,0,1,6.423.984l-.986,3.235a20.707,20.707,0,0,0-6.657-1.171c-3.279,0-6.7,1.968-6.7,8.533,0,6.938,4.361,9.189,8.391,9.189a11.739,11.739,0,0,0,5.3-1.218Zm10.723,1.174H404.1V84.136h4.121Zm17.69.467c-6.19,0-10.5-4.172-10.5-11.488,0-7.83,5.16-12.423,12.427-12.423,6.189,0,10.5,4.219,10.5,11.533,0,7.785-5.158,12.378-12.427,12.378m.284-20.863c-3.615,0-6.521,2.295-6.521,8.3,0,6.846,3.187,9.566,7.829,9.566,3.66,0,6.567-2.251,6.567-8.346,0-6.8-3.237-9.518-7.875-9.518m35.28,20.863L449.19,90v17.114h-3.75V84.136h4.124l11.677,17.02V84.136h3.706v22.742Zm24.893-6.75h-9l-2.2,6.283h-4.081l8.861-22.883,4.27-.561,8.767,23.444h-4.363Zm-4.551-12.8-3.417,9.8h6.89Zm17.3-3.891h4.123V104.11l10.038-.14-.422,3.142H499.119Z" fill="#fff"/>
      <path id="Trazado_4" data-name="Trazado 4" d="M331.862,118.851c3.739,0,6.144,2.058,6.144,5.7,0,4.089-3.1,6.443-7.136,6.443h-3.221V118.851Zm-2.033,10.533c.545.048,1.39.073,2.133.073,1.933,0,3.816-1.114,3.816-4.534,0-3.221-2.084-4.534-4.611-4.534h-1.338Zm12.533-10.533h7.6l-.193,1.611-5.232-.073v3.617h4.834l-.224,1.462-4.61-.074v4.014l5.775-.075-.2,1.661h-7.755Z" fill="#fff"/>
      <path id="Trazado_5" data-name="Trazado 5" d="M369.731,130.375a9.111,9.111,0,0,1-3.888.866c-3.491,0-6.049-2.106-6.049-6.195a6.1,6.1,0,0,1,6.448-6.441,9.222,9.222,0,0,1,3.391.52l-.518,1.708a11.041,11.041,0,0,0-3.524-.618c-1.73,0-3.54,1.041-3.54,4.51,0,3.668,2.3,4.857,4.437,4.857a6.206,6.206,0,0,0,2.8-.644Zm8.55.866c-3.274,0-5.555-2.2-5.555-6.071,0-4.138,2.726-6.565,6.571-6.565,3.268,0,5.549,2.228,5.549,6.095,0,4.114-2.729,6.541-6.565,6.541m.146-11.026c-1.909,0-3.448,1.214-3.448,4.386,0,3.617,1.693,5.054,4.141,5.054,1.934,0,3.471-1.189,3.471-4.41,0-3.592-1.712-5.03-4.164-5.03m10.8-1.364h2.184v10.556l5.3-.073-.221,1.659h-7.261Zm15.849,12.39c-3.271,0-5.551-2.2-5.551-6.071,0-4.138,2.725-6.565,6.562-6.565,3.275,0,5.555,2.228,5.555,6.095,0,4.114-2.725,6.541-6.566,6.541m.149-11.026c-1.908,0-3.445,1.214-3.445,4.386,0,3.617,1.684,5.054,4.136,5.054,1.936,0,3.469-1.189,3.469-4.41,0-3.592-1.7-5.03-4.16-5.03m12.923,1.387-.892,9.391h-2.03l1.511-12.142h2.306l3.765,9.69,3.644-9.69h2.3l1.462,12.142h-2.131l-.942-9.416-3.42,9.071h-.1v.024l-1.883.3Zm16.608-2.751h3.94c2.65,0,4.112,1.041,4.112,2.875a3.215,3.215,0,0,1-1.954,2.85c1.36.224,2.844,1.017,2.844,2.825,0,2.181-2.005,3.592-5.4,3.592h-3.544Zm5.947,3.519c0-1.289-.7-2.031-2.753-2.031-.246,0-.642,0-1.012.024v3.766c.445,0,.917.026,1.287.026,1.882,0,2.478-.719,2.478-1.785m.818,5.279c0-1.411-1.137-2.18-3.077-2.18-.419,0-.986.024-1.506.024v3.939c.664.026,1.486.051,2.259.051,1.281,0,2.324-.446,2.324-1.834m8.666,3.344h-2.178V118.851h2.178Zm11.874-3.32H457.3l-1.161,3.32h-2.159l4.682-12.092,2.253-.3,4.634,12.388h-2.3Zm-2.4-6.765-1.812,5.179h3.646Z" fill="#fff"/>
      <path id="Trazado_6" data-name="Trazado 6" d="M225.556,89.4c0,6.071-3.737,9.107-7.708,9.107a6.439,6.439,0,0,1-6.657-6.655c0-3.151,1.987-5.6,4.439-5.488a2.1,2.1,0,0,1,2.275,2.046,1.57,1.57,0,0,1-1.515,1.632c-.469,0-.7-.115-.819-.29.411,1.049,1.812,1.167,2.4,1.167a8.311,8.311,0,0,0,7.237-5.136,16.459,16.459,0,0,1,.353,3.617M211.545,62.548a3.566,3.566,0,0,1,3.5-3.737,1.859,1.859,0,0,1,2.1,1.694,5.849,5.849,0,0,1,2.214-1.576,7.24,7.24,0,0,1-3.733-7.3,6.488,6.488,0,0,1,2.452-.35,7.4,7.4,0,0,1,4.321,1.46c0-3.621,1.691-4.555,1.691-7.24a7.7,7.7,0,0,0-.292-1.985c3.1.059,6.655,3.27,6.655,9.225a13.478,13.478,0,0,1-3.034,8.4c-3.737,0-7.009,5.254-11.561,5.254-2.448,0-4.317-1.634-4.317-3.853M214.465,89a1.494,1.494,0,0,1,1.456-1.637,1.329,1.329,0,0,1,.88.293,1.317,1.317,0,0,0-1.171-.524c-1.925,0-3.5,1.984-3.5,4.727a5.585,5.585,0,0,0,5.719,5.722c4.207,0,6.421-3.27,6.889-7.357-1.169,2.57-3.387,5.02-6.832,5.02a4.363,4.363,0,0,1-4.144-3.269,4.3,4.3,0,0,0,4.144,2.336c2.745,0,5.254-2.393,6.129-5.136a8.384,8.384,0,0,1-6.068,2.684c-2.22,0-3.5-1.283-3.5-2.859m10.508-28.022a7.324,7.324,0,0,0-4.323.933c-2.568,1.635-4.788,3.153-6.364,1.226,1.7,1.285,3.385-.291,6.073-1.985a9.228,9.228,0,0,1,4.553-.935,19.31,19.31,0,0,1-5.372-4.028c1.81,1.11,3.737,2.4,5.779,3.447a23.523,23.523,0,0,0-6.887-6.19c2.69.759,5.722,3.5,7.588,5.722a26.118,26.118,0,0,1-.872-8.233,59.293,59.293,0,0,0,1.751,8A27.243,27.243,0,0,0,226.37,46.9c1.811,2.8,2.043,6.948,1.4,12.2a12.85,12.85,0,0,0,1.811-6.362c0-4.264-1.637-7.066-4.205-8.115a2.583,2.583,0,0,0-.64-.177,4.655,4.655,0,0,1,.175,1.344c0,2.218-1.635,3.561-1.635,6.948a7.9,7.9,0,0,0,.291,2.452,6.713,6.713,0,0,0-5.6-3.154,6.456,6.456,0,0,0-1.521.175c-.114,1.869.7,5.079,4.9,6.832-3.738.584-3.738,2.918-5.488,2.918a1.26,1.26,0,0,1-1.285-1.285,1,1,0,0,1,1.228-.992,2.162,2.162,0,0,0-.756-.116,2.8,2.8,0,0,0-2.568,2.976,3.107,3.107,0,0,0,3.381,3.036c3.153,0,6.071-3.21,9.111-4.611m.813,42.091c0,4.552-1.752,7-3.853,9.34a19.365,19.365,0,0,0-4.434,7.064c-1.869-.992-3.39-3.912-3.39-7.531a13.139,13.139,0,0,1,4.089-9.925c2.452-2.334,5.138-3.151,6.419-5.372a18.478,18.478,0,0,1,1.169,6.424m-2.218-2.571a25.53,25.53,0,0,0-6.653,13.9,20.887,20.887,0,0,1,5.9-14.6c-5.372,2.861-7.763,7.356-7.763,12.143a9.291,9.291,0,0,0,1.978,6.071,25.974,25.974,0,0,1,4.209-6.187c1.752-2.221,3.5-4.321,3.5-8.757a21.331,21.331,0,0,0-.12-2.453,26.126,26.126,0,0,1-5.717,11.442c1.866-3.735,3.794-7.239,4.668-11.56M223.1,65.116c0,2.8,3.851,5.138,3.851,11.094a14.185,14.185,0,0,1-7.234,12.374,5.353,5.353,0,0,0,.348-1.866c0-4.087-2.333-8.174-2.333-12.435,0-4.144,1.867-8.115,5.486-9.866a1.459,1.459,0,0,0-.118.7m11.5,57.563c-.7,1.634-2.745,2.568-4.612,2.568a5.213,5.213,0,0,1-4.672-2.568c-.346,1.984-1.633,3.968-1.633,5.195,0,.408,0,.642.236.876a1.46,1.46,0,0,1,1.515-1.051,1.671,1.671,0,0,1,1.636,1.634c0,1.285-1.053,2.335-2.8,2.335-2.919,0-5.837-2.51-5.837-7.938,0-4.671,2.452-8.758,9.109-13.428,1.633,5.02,1.692,10.976,7.062,12.377M223.1,74.984a51.838,51.838,0,0,0-1.169-7.649,24.532,24.532,0,0,0-.583,5.488,82.265,82.265,0,0,0,.937,10.276,40.955,40.955,0,0,1-1.873-10.276A26.521,26.521,0,0,1,221,66.985a11.26,11.26,0,0,0-2.332,7.3c0,4.261,2.454,8.232,2.332,12.551a13.585,13.585,0,0,0,5.02-10.624c0-2.92-1.165-5.372-3.267-8.875a47.709,47.709,0,0,1,1.169,7.649,28.935,28.935,0,0,1-.354,5.311c-.116-1.81-.291-3.617-.466-5.311m3.093,38.528a29.947,29.947,0,0,0-4.845,12.5c-.35-4.262,1.167-8.7,3.853-12.785a13.43,13.43,0,0,0-5.84,10.508c0,5.778,3.973,8.174,6.3,6.655-1.514.467-2.856-.584-2.856-2.453,0-2.393,2.391-4.318,2.391-10.741-.118,5.254,2.106,7.122,4.788,7.122a4.87,4.87,0,0,0,3.093-1.167c-2.918-1.11-4.61-4.205-5.661-9.693-.876,3.388.582,7.825,2.448,9.459-2.448-.817-3.967-5.313-3.676-9.4m15.3,34.035c-5.549,2.453-9.341,4.087-13.019,4.087-4.087,0-6.187-1.868-6.187-4.786V141.3c0-1.868,1.34-3.094,3.617-3.094a6.369,6.369,0,0,1,2.339.467,5.68,5.68,0,0,1,4.259-2.1c1.867,0,3.154.933,3.154,2.568a2.338,2.338,0,0,1-1.287,2.218c1.925-.817,3.273-1.46,5.372-2.4,5.6-2.509,14.944-6.012,21.542-6.012s15.935,3.5,21.543,6.012c2.1.935,3.442,1.578,5.365,2.4a2.343,2.343,0,0,1-1.281-2.218c0-1.635,1.281-2.568,3.15-2.568a5.694,5.694,0,0,1,4.264,2.1,6.339,6.339,0,0,1,2.336-.467c2.275,0,3.619,1.226,3.619,3.094v5.547c0,2.918-2.1,4.786-6.187,4.786-3.678,0-7.474-1.634-13.021-4.087-7.123-3.151-12.724-5.6-19.788-5.6s-12.671,2.452-19.79,5.6m-1.4-7.706c-4.9,2.219-8.755,3.853-12.319,3.853-2.745,0-3.849-.758-4.551-1.459v4.613c0,2.334,1.806,3.851,5.254,3.851,3.327,0,7.119-1.576,12.67-4.028,7.468-3.326,13.071-5.663,20.139-5.663s12.665,2.337,20.14,5.663c5.542,2.452,9.343,4.028,12.669,4.028,3.442,0,5.254-1.517,5.254-3.851v-4.613c-.7.7-1.812,1.459-4.557,1.459-3.56,0-7.411-1.634-12.317-3.853-5.953-2.683-15.176-5.953-21.189-5.953s-15.239,3.27-21.193,5.953m-16.638.759c0,1.46,2.216,2.277,4.319,2.277a18.146,18.146,0,0,0,6.364-1.4c-1.521.409-3.15-.291-4.614-1.108a8.074,8.074,0,0,0-3.735-1.344c-1.517,0-2.334.817-2.334,1.576m70.406-63.865c0,4.9,1.517,7.94,1.517,12.96-3.156,0-4.087.933-4.087,2.8s1.226,2.919,4.205,2.919c-.468,17.69-5.61,24.692-12.61,28.781-6.19,3.386-13.892,4.612-21.6,8.7-7.706-4.085-15.416-5.311-21.6-8.7-7.005-4.089-12.141-11.091-12.609-28.781,2.979,0,4.2-1.051,4.2-2.919s-.935-2.8-4.087-2.8c0-5.02,1.519-8.058,1.519-12.96a18.587,18.587,0,0,0-3.851-10.976l1.283-2.452a3.478,3.478,0,0,0,4.552-4.437l2.568-1.4c4.207,3.969,8.933,6.306,13.9,6.306a20.061,20.061,0,0,0,9.809-2.569l4.32,5.954,4.321-5.954a20.043,20.043,0,0,0,9.806,2.569c4.961,0,9.691-2.337,13.892-6.306l2.57,1.4a3.478,3.478,0,0,0,4.552,4.437l1.287,2.452a18.6,18.6,0,0,0-3.853,10.976m-68.655,68.3.7.175v3.327a2.818,2.818,0,0,1-.7-.291Zm7.063-53.009h19.442a17.573,17.573,0,0,0,.232-2.568,9.075,9.075,0,0,0-.585-3.445l1.4-1.691a12.6,12.6,0,0,0,1.516.116,11.235,11.235,0,0,0,6.422-1.869V68.1l-3.967-5.6a21.673,21.673,0,0,1-9.577,2.218c-5.254,0-9.922-2.393-14.009-6.129l-1.462.759a4.546,4.546,0,0,1-1.169,3.737,4.331,4.331,0,0,1-3.91,1.167l-.7,1.4A19.833,19.833,0,0,1,229.641,76.5c0,3.735-1.4,9.225-1.4,12.258,2.447.236,3.909,1.344,4.023,3.27m-4.146,56.978-.579-.059-.468-1.575-.234-1.051h-.115l.229,1.4v1.111l-.583-.118v-3.386l.583.057.47,1.4.234,1.051h.114l-.23-1.4v-1.053h.579Zm7.473-23.177c4.788,0,9.17,2.979,16.756,5.254-3.388,2.8-6.891,4.205-10.272,4.205-5.838,0-9.575-4.205-11.85-3.562a1.282,1.282,0,0,1,1.108,1.342,1.506,1.506,0,0,1-1.694,1.4,2.228,2.228,0,0,1-2.218-2.394c0-3.212,3.5-6.248,8.17-6.248m15.823-30.881a17.051,17.051,0,0,1,.173-1.985H232.266c-.114,1.692-1.226,3.036-4.146,3.27.354,16,5.724,23.525,12.145,27.146,6.069,3.385,14.13,4.845,20.433,8V105.341c-7.938-2.686-9.282-5.838-9.282-10.392m-16.171,33.685c3.971,0,9.164,2.334,13.839,2.334-3.974-1.226-9.518-4.321-13.491-4.321-2.916,0-7.237,1.753-7.237,5.488a2.819,2.819,0,0,0,.118.7c.116-1.4,1.047-1.985,2.566-1.985,2.57,0,6.192,3.561,11.037,3.561a14.35,14.35,0,0,0,6.185-1.519c-3.969.118-8.347.352-13.017-2.217a24.058,24.058,0,0,0,8.174,1.4c.7,0,4.146-.059,4.843-.174-7.118-.468-11.378-3.5-16.518-2.686a9.916,9.916,0,0,1,3.5-.584m-6.3,17.279-.584.059v-.586a12.372,12.372,0,0,0,1.926-.232v.643s-.525.057-.641.057v3.094l-.7.059Zm3.562-8.524a4.689,4.689,0,0,0-3.446,1.694c1.226.7,2.863,1.635,4.2,1.635a1.417,1.417,0,0,0,1.464-1.576c0-1.051-.937-1.753-2.22-1.753m-1.988,7.706c.585-.116,1.055-.234,1.516-.349v.583l-.811.116V146.5l.7-.234v.586l-.7.116v1.226a7.148,7.148,0,0,0,.811-.293v.584a13.841,13.841,0,0,1-1.516.352Zm11.563-87.8a5.007,5.007,0,0,1-1.635,3.5c-.238-1.519-2.686-3.5-5.72-3.971a9.5,9.5,0,0,1-3.214-7.239c0-4.961,3.68-7.413,5.376-11.266a3.869,3.869,0,0,1-1.932.407,3.263,3.263,0,0,1-3.383-3.327c0-2.452,1.98-4.377,4.9-4.377,3.5,0,7.234,3.035,7.234,10.156a19.582,19.582,0,0,1-4.434,12.61,3.56,3.56,0,0,1,2.8,3.5m-8.117-2.627c-.464-8.173,3.324-9.69,4.845-14.885-.874,5.486-4.318,7-3.794,14.826,5.9-9.865,5.954-15.119,5.37-18.563,1.576,3.5.82,9.515-4.491,19.206,1.866-.35,3.383.234,4.025,1.635a3.7,3.7,0,0,0-3.794-.468,6.3,6.3,0,0,1,4.492,2.92,3.135,3.135,0,0,0,.642-2.044c0-1.516-1.051-2.686-3.151-3.151A20.132,20.132,0,0,0,242.9,41.181c0-6.537-3.387-9.339-6.423-9.339-2.454,0-3.971,1.46-3.971,3.56a2.508,2.508,0,0,0,2.45,2.627,3.011,3.011,0,0,0,2.1-.583c-1.287.118-1.867-.643-1.867-1.4a1.345,1.345,0,0,1,1.4-1.4,1.572,1.572,0,0,1,1.517,1.75c0,4.2-5.718,7.706-5.718,13.194a8.808,8.808,0,0,0,1.574,5.079m-1.574,93.7v-3.737l.464-.116c.817-.234,1.285.175,1.285.758a1.326,1.326,0,0,1-.586,1.11l.993,1.286-.7.231-.522-.817-.122-.466-.23.057v1.519Zm1.163-2.92c0-.35-.227-.584-.579-.466v1.168a.7.7,0,0,0,.579-.7M244,72.707a1.49,1.49,0,0,1-1.4-.993,16.7,16.7,0,0,0-3.385.409l3.036,9.457h.817c0,1.167-1.4,2.218-4.441,2.218-2.917,0-4.2-1.051-4.2-2.218h.7l2.8-9.107-.525.175L237,71.422a22.635,22.635,0,0,1,5.6-1.052,1.518,1.518,0,0,1,1.4-.933,1.385,1.385,0,0,1,1.344.933,23.092,23.092,0,0,1,5.661,1.052l-.407,1.226-.524-.175,2.8,9.107h.7c0,1.167-1.287,2.218-4.205,2.218-3.038,0-4.436-1.051-4.436-2.218h.817l3.034-9.457a15.717,15.717,0,0,0-3.384-.409,1.5,1.5,0,0,1-1.4.993m-8.93,72.738a.466.466,0,1,1,.466.468.429.429,0,0,1-.466-.468m3.211-63.865V73.231L235.89,81.58Zm-1.458,65.209.583-4.03,1.047-.466.586,3.62-.586.234-.115-.818-.7.293-.122.874Zm14.359-32.868a3.215,3.215,0,0,1-1.81.468c-1.807,0-2.918-.992-2.918-3.386,0-2.161,0-2.86.232-6.888h-3.617a40.057,40.057,0,0,1-.234,5.953,6.949,6.949,0,0,1-2.686,4.612l-1.344-1.458a4.444,4.444,0,0,0,2.276-3.388,36.263,36.263,0,0,0,.235-5.719c-1.984,0-2.627.874-2.627,2.684l-1.8-.466c.348-2.92,1.921-3.855,4.609-3.855h9.512v1.637h-2.623c-.232,4.318-.181,4.727-.181,6.421s.76,2.1,1.7,2.1a2.779,2.779,0,0,0,1.285-.293Zm-12.958,30.825-.12-.818-.114-.874-.122.057-.226,1.868Zm.758-71.515V81.58h2.45Zm.875,68.42v2.8c0,.234.12.352.233.352.234,0,.47-.234.47-.7v-2.8l.7-.293v2.745c0,1.168-.7,1.751-1.278,1.751-.468,0-.7-.35-.7-.817v-2.8Zm1.984-.876.585-.232v3.326l.7-.349v.642l-1.283.525Zm4.437-89.086a1.91,1.91,0,0,1-2.1,1.868,1.84,1.84,0,0,1-1.868-1.868c.587.467,1.868.118,2.1,1.053.118-.935,1.287-.935,1.753-1.637a1.066,1.066,0,0,1,.116.584m.7,1.868c0,1.285-1.167,1.985-2.688,1.985a1.745,1.745,0,0,1-1.984-1.867c.7.7,2.334.234,2.568,1.283,0-1.167,1.632-1.283,1.984-1.984a.857.857,0,0,1,.12.583m-2.8-1.984a1.566,1.566,0,0,1-1.639-1.4,1.015,1.015,0,0,1,.122-.584c.464.584,1.517.35,1.633,1.517-.116-1.167,1.285-1.4,1.521-1.633.053,1.168-.586,2.1-1.637,2.1m3.849,3.853c0,1.519-1.629,2.452-3.031,2.452a1.909,1.909,0,0,1-1.987-1.635c.177.175.584.118,1.755.118.465,0,1.051,0,1.281.584v-.468c0-1.167,1.637-1.519,1.752-2.218a5.043,5.043,0,0,1,.23,1.167m7.826,1.519c1.4,0,1.987.817,2.221,2.8-1.751,0-6.891,2.686-10.508,2.686-2.688,0-4.207-.936-4.441-4.437a6.836,6.836,0,0,0,4.093,1.051c3.265,0,6.946-2.1,8.635-2.1M244.177,49.7a1.361,1.361,0,0,1-.819-1.283,3.321,3.321,0,0,1,1.051-2.1c0,.935.468,1.519.468,2.218a1.456,1.456,0,0,1-.7,1.167m-.819,94.34.471-4.085.934-.351.815,3.5-.583.234-.118-.7-.759.293-.059.817Zm.819-1.751.586-.233-.236-.875-.118-.876-.116.059v.874Zm1.281-103.68c.586,0,1.287-.35,1.637-1.869a22.127,22.127,0,0,0-.114,2.686,38.826,38.826,0,0,0,.35,5.138,4.063,4.063,0,0,1,.114,1.167c0,1.285-.464,1.869-1.048,2.1a29.649,29.649,0,0,1-1.053-7.589,7.357,7.357,0,0,1,.114-1.636m.063,20.959v1.75a2.8,2.8,0,0,0,1.049.234v-.35H246.1V59.631Zm24.461-32.516c2.919,0,6.537,2.8,7.006,10.508-1.051,0-1.4-.82-1.521-2.1-.7-4.9-3.271-7.238-5.138-7.238-3.621,0-.7,5.719-4.434,6.537,0,.935-.234,2.1-.7,2.1-.583,0-.817-1.051-1.049-1.869,0,1.286-.356,2.335-.817,2.335-.348,0-.7-1.049-.938-1.985,0,1.169-.579,2.337-1.163,2.337-.469,0-1.053-1.168-1.053-2.337-.234.936-.586,1.985-.933,1.985-.47,0-.818-1.049-.818-2.335-.233.818-.469,1.869-1.053,1.869-.463,0-.7-1.167-.7-2.1-3.735-.818-.818-6.537-4.435-6.537-1.871,0-4.439,2.334-5.14,7.238-.114,1.283-.468,2.1-1.517,2.1.466-7.707,4.087-10.508,7.007-10.508,4.321,0,2.1,5.37,4.085,5.37.817,0,1.519-.936,2.22-2.1a1.451,1.451,0,0,0-.12.7c0,.933.935,1.516,2.456,1.516,1.631,0,2.562-.583,2.562-1.516a1.543,1.543,0,0,0-.112-.7c.7,1.167,1.283,2.1,2.219,2.1,1.868,0-.234-5.37,4.087-5.37M245.814,142.119c.464.116.872,0,.872-.35,0-.7-1.047-.817-1.047-1.869a1.154,1.154,0,0,1,1.456-1.051l.122.643c-.472-.118-.883-.059-.883.408,0,.584,1.111.759,1.111,1.81a1.134,1.134,0,0,1-1.517,1.049Zm.756-60.539h2.452V73.231Zm.057-32.809c.59-.234,1.054-.817,1.054-2.452a42.1,42.1,0,0,0,2.216,7.238,20.013,20.013,0,0,1,1.171,2.92.542.542,0,0,1-.356.584,25.115,25.115,0,0,1-4.085-8.29m.175,12.785h.586V59.688H246.8Zm.938-1.868v1.927l.758-.059c.463-.059.7-.293.7-.642s-.236-.409-.465-.409a.455.455,0,0,0,.408-.468c0-.349-.294-.465-.758-.406Zm1.925-24.461c-.177,1.4-.819,1.985-1.751,1.985a15.629,15.629,0,0,1,1.283-5.37c.818-1.753,2.219-2.8,2.918-2.8.234,0,.47.116.47.35s-.35.349-.82.817a8.753,8.753,0,0,0-2.1,5.02m-1.751,2.92c.584,0,1.17-.352,1.517-1.753a19.614,19.614,0,0,0-.118,2.571V41.3c0,.817-.116,1.868-1.163,1.984a40.033,40.033,0,0,1-.236-5.136m.348,6.071c.7,0,1.285-.583,1.285-1.984a37,37,0,0,0,2.688,10.156,8.94,8.94,0,0,1,.584,2.452.641.641,0,0,1-.47.7,30.89,30.89,0,0,1-4.087-11.324m.35,15.937a.275.275,0,0,1-.289.293v-.586a.275.275,0,0,1,.289.293m0,.875c0,.233-.114.351-.289.351v-.7c.175,0,.289.118.289.35m-.23,78.929a.466.466,0,1,1,.464.468.429.429,0,0,1-.464-.468m1.049-78.578,1.167-.234V60.8l-.583.116v-.525l.522-.059v-.35l-.522.116v-.465l.522-.059v-.35l-1.106.232Zm2.745,20.2-2.452-8.349V81.58Zm-1.927-43.551c.583,0,1.167-.349,1.516-1.868-.113,1.051-.233,1.868-.233,2.452,0,.817.12,1.868.12,2.452,0,.935-.12,1.869-1.17,2.1a20,20,0,0,1-.349-3.619,6.224,6.224,0,0,1,.116-1.519m1.632-2.8c-.229,1.4-.583,1.869-1.517,1.869.234-3.036.818-4.67,1.871-6.189.236-.35.584-.7.933-.7a.374.374,0,0,1,.348.35c0,.234-.112.35-.236.583a10.157,10.157,0,0,0-1.4,4.087M250.364,141.36l.641-3.912.994-.29.586,3.56-.586.175-.118-.7-.638.177-.12.758Zm.118-97.375c.7-.118,1.17-.7,1.283-2.1a38.313,38.313,0,0,0,2.335,8.991,6.25,6.25,0,0,1,.467,2.219,1.055,1.055,0,0,1-.352.817,28.608,28.608,0,0,1-3.733-9.924m1.928,16.638-.47-.7a.522.522,0,0,0,.295-.467.557.557,0,0,0-.758-.525l-.645.175v1.985l.584-.175v-.759l.349.643Zm-1.112,79.1.467-.117-.113-1.049-.063-.761-.112.059-.061.758Zm.354-80.212c0,.234-.063.349-.236.408v-.7c.173-.059.236.116.236.291m.583-.409.407-.175v1.635l.585-.175V58.754l.35-.059v-.408l-1.342.408Zm1.928,26.27a5.674,5.674,0,0,1-.995-.116l-.758.933a13.877,13.877,0,0,1,.464,3.27c0,1.635-.464,3.853-.464,5.254,0,4.321,1.045,7.122,8.873,9.69,7.822-2.568,8.873-5.369,8.873-9.69,0-1.4-.469-3.619-.469-5.254a13.918,13.918,0,0,1,.469-3.27l-.758-.933a5.765,5.765,0,0,1-.992.116,12.228,12.228,0,0,1-7.123-1.984,12.234,12.234,0,0,1-7.12,1.984M252.471,37.1c.7,0,1.281-.584,1.515-1.635a17.088,17.088,0,0,0-.118,2.334c0,1.052.118,1.987.118,2.57a1.605,1.605,0,0,1-1.4,1.751,29.169,29.169,0,0,1-.114-3.036Zm1.045-4.321c.236,0,.47.352.47,1.167,0,1.051-.354,2.219-1.4,2.219.35-2.918.583-3.386.931-3.386M252.7,43.167c.581-.118,1.287-.467,1.4-1.868a40.628,40.628,0,0,0,1.752,8.4,8.426,8.426,0,0,1,.584,2.336.829.829,0,0,1-.35.7,28.52,28.52,0,0,1-3.387-9.575m1.868,97.083c-.815.35-1.748.059-1.748-1.691,0-1.286.7-2.1,1.632-1.985v.584c-.7,0-1,.465-1,1.4,0,1.049.531,1.4,1.112,1.166Zm2.92,3.211a6.772,6.772,0,0,1,3.739,1.167,7.125,7.125,0,0,1,3.849-1.167c2.8,0,4.553,1.4,4.553,3.269a2.485,2.485,0,0,1-2.564,2.452c-1.054,0-1.871-.467-1.871-1.4a.98.98,0,0,1,1.051-1.051,1.054,1.054,0,0,1,.82,1.635,1.611,1.611,0,0,0,1.633-1.694c0-1.458-1.4-2.393-3.388-2.393a6.172,6.172,0,0,0-3.385.935,5.42,5.42,0,0,1,1.986,3.735,2.7,2.7,0,1,1-5.376,0,5.424,5.424,0,0,1,1.989-3.735,5.73,5.73,0,0,0-3.27-.935c-2.1,0-3.5.935-3.5,2.393a1.609,1.609,0,0,0,1.633,1.694,1.052,1.052,0,0,1,.815-1.635.979.979,0,0,1,1.053,1.051c0,.934-.817,1.4-1.868,1.4a2.486,2.486,0,0,1-2.566-2.452c0-1.869,1.748-3.269,4.668-3.269m-3.619-85.29-.413,2.159.472-.175.059-.349.409-.175.056.29.584-.174-.468-1.81Zm1.283,38.3c-.7.292-1.519-.35-1.519-1.4,0-.466.061-.934.295-5.136h.173V93.9c.819.351,1.636,1.051,1.636,1.868,0,.35-.233.525-.585.7m1.4,1.285a1.71,1.71,0,0,1-2.684-.35c.817,0,1.635-.818,2.454-.118-.586-.584,0-1.283.114-1.867l-1.167-3.387h.175l1.575,3.387a1.536,1.536,0,0,1-.467,2.335M254.163,58.4l.175.933-.3.116Zm1.805-21.661c0,1.519.118,2.686.118,3.388,0,1.049-.583,1.75-1.051,1.75a26.544,26.544,0,0,1-.35-4.2c0-1.751.234-2.1.584-2.1s.7.352.7,1.167m.468,19.5.116-.817.7-1.167-1.285,1.051-.349.584h-.234l.118-.818.933-.817-1.167.349-.234.35h-.35l.466-.7,2.336-.934.352-2.57c.114.118.234.118.467.118.35,0,.464,0,.584-.118l-.584,2.57,1.515.934.234.935h-.234l-.581-.586-1.051-.349-1.054,1.283-.465.7ZM254.8,140.191l.468-3.853,1.053-.232.7,3.619-.7.116-.122-.817-.636.177-.12.815Zm.234-97.491c.468,0,1.051-.466,1.165-1.635.122,1.169.585,3.153.585,3.971s-.349,1.517-.817,1.517a20.849,20.849,0,0,1-.933-3.853m.584,16.872c.64-.234.933-.525.933-1.167,0-.584-.352-.82-.933-.7l-.584.118v1.926Zm2.57,39.346c-1.17,1.285-2.1,1.051-2.8.118.7,0,1.634-1.169,2.34-.584-.706-.585.464-1.635.464-2.336q1.4,1.226,0,2.8m-2.221-40.4c0,.526-.116.642-.349.758V57.937c.233,0,.349,0,.349.584m.118,79.919-.234-1.75h-.116l-.117,1.869Zm2.336-35.9,2.335-1.753-.936-.7a1.758,1.758,0,0,1-2.568.349c.7-.233,1.4-1.518,2.216-.817-.7-.817.236-1.752.118-2.568a1.764,1.764,0,0,1,.468,2.568l.935.7V96.466a2.976,2.976,0,0,1-2.684-2.217l-2.454-3.621h.234l2.684,3.385c.935.352,2.513.7,2.513,1.519,0-.817,1.574-1.167,2.505-1.519l2.692-3.385h.228l-2.45,3.621a2.984,2.984,0,0,1-2.682,2.217v3.853l.933-.7a1.767,1.767,0,0,1,.47-2.568c-.122.816.809,1.751.114,2.568.817-.7,1.4.584,2.216.817a1.758,1.758,0,0,1-2.568-.349l-.931.7,2.448,1.753-.7.232-1.984-1.4v2.1l-.293.116-.293-.116v-2.1l-1.868,1.4Zm-.583-55.169c0,.468.234.933.7.933.356,0,.706-.349.935-.815.47.466.7,1.283.7,2.8a1.4,1.4,0,0,1-1.051-1.4c-.118.933-.466,1.4-.816,1.4-.233,0-.353-.35-.353-.816v-.817a1.2,1.2,0,0,1-1.4.817,3.815,3.815,0,0,1,1.287-2.1m3.444,46.761a2.582,2.582,0,0,1-2.627-1.868l-2.1-3.036h.233l2.337,3.036c.817.349,1.984.7,2.161,1.285.23-.584,1.34-.936,2.159-1.285l2.335-3.036h.233l-2.1,3.154a2.686,2.686,0,0,1-2.627,1.75M258.77,44.684c1.285,0,1.637.468,1.637,2.218v.7c-.586,0-.938-.584-1.053-1.169-.114.819-.464,1.169-.7,1.169-.35,0-.467-.234-.467-.817v-.7a1.278,1.278,0,0,1-1.283.817c.463-1.75.933-2.218,1.864-2.218m2.456-5.955c.7,0,1.163-.7,1.163-1.633.234.933.7,1.285,1.053,1.285.468,0,.934-.817.934-1.753.118.818.583,1.519,1.167,1.519,0,1.283-.234,1.985-.82,1.985-.347,0-.465-.584-.7-1.519,0,.935-.464,1.868-.931,1.868-.352,0-.584-.349-.82-1.4-.114,1.052-.585,1.869-1.047,1.869-.354,0-.937-.817-.937-1.869-.234,1.052-.468,1.4-.82,1.4-.465,0-.935-.933-.935-1.868-.228.935-.345,1.519-.7,1.519-.586,0-.82-.7-.82-1.985.468,0,1.054-.7,1.17-1.519,0,.936.467,1.753.933,1.753.347,0,.817-.352,1.051-1.285,0,.933.468,1.633,1.053,1.633m.057,53.534a2.5,2.5,0,0,1-2.513-1.635l-1.635-2.8h.234L259,90.278c.817.35,2.1.7,2.279,1.4.23-.7,1.458-1.051,2.277-1.4l1.515-2.452h.234l-1.521,2.8a2.712,2.712,0,0,1-2.505,1.635m-3.914,43.668.409-.059c.931-.117,1.576.35,1.576,1.751s-.7,1.869-1.515,1.985l-.47.059Zm3.857-93.7c.584,0,1.163-.817,1.163-1.753.234.936.468,1.4.938,1.4s.817-.817.817-1.868a5.28,5.28,0,0,1,.931,2.8c0,.817-.234,1.049-.465,1.049-.352,0-.822-.466-.934-1.517,0,1.285-.349,1.868-.819,1.868-.234,0-.584-.467-.815-1.284,0,1.051-.354,1.75-.816,1.75-.354,0-.7-.7-.7-1.75-.234.817-.584,1.284-.818,1.284-.465,0-.815-.583-.815-1.868-.12,1.051-.584,1.517-.937,1.517-.228,0-.466-.232-.466-1.049a5.291,5.291,0,0,1,.935-2.8c0,1.051.348,1.868.818,1.868s.7-.465.933-1.4c0,.936.584,1.753,1.053,1.753m1.222-13.6a6.108,6.108,0,0,0,.175,1.108c0,.468-.7.818-1.4.818-.469,0-1.171-.35-1.171-.7a16.167,16.167,0,0,0,.407-1.868.919.919,0,0,0-.112-.468,1.33,1.33,0,0,0,.815.234,1,1,0,0,0,.82-.35c-1.4.409-1.93-.408-2.046-1.11a.809.809,0,0,1-1.169-.35,4.23,4.23,0,0,0-.756.35c-.236-.992.115-1.226,1.34-1.4a.844.844,0,0,1-.232-.583c0-.584.642-.877,2.1-.877.639,0,1.047.234.933.527,0,.234-.117.234-.117.35a1.431,1.431,0,0,1,.99,1.517c0,1.169-.584,1.4-.584,2.8M258.77,137.739c0-.933-.348-1.4-.817-1.283v2.568c.469,0,.817-.584.817-1.285M261.283,90.4a2.177,2.177,0,0,1-2.161-1.637l-.933-2.684h.172l.993,2.337c.819.347,1.929.7,1.929,1.517,0-.818,1.106-1.17,1.81-1.517l1.106-2.337h.177l-.934,2.684a2.369,2.369,0,0,1-2.159,1.637m-2.922-29.19c0-.467.409-.876,1.344-1.344a3.665,3.665,0,0,1-.815,1.052c.7-.466.579-.35.931-.584-.467,1.051-.876,1.167-1.112,1.167s-.348-.116-.348-.291m4.844-1.575a11.3,11.3,0,0,0-1.979-.236,11.558,11.558,0,0,0-1.872.236,9.453,9.453,0,0,1-.584-2.452c0-.936.7-1.285,2.456-1.285,1.867,0,2.562.349,2.562,1.285a9.251,9.251,0,0,1-.583,2.452m-4.024,2.627c0-.468.35-1.052,1.169-1.869-.236.7-.354.933-.586,1.633.35-.584.586-.816.818-1.165-.12,1.633-.643,1.925-.995,1.925-.233,0-.406-.175-.406-.524m3.8,86.69a4.357,4.357,0,0,0-1.753-3.151,4.348,4.348,0,0,0-1.757,3.151,1.769,1.769,0,1,0,3.51,0m-3.158-9.456v-3.853l1.4-.059v.583l-.819.059v.993l.7-.057v.581h-.7v1.169l.819-.059v.584Zm1.4-74.725c-.469,0-.819-.234-.819-1.052a6.531,6.531,0,0,1,.465-2.159,5.636,5.636,0,0,1,.354,1.635,5.517,5.517,0,0,1,.35-1.635,6.564,6.564,0,0,1,.466,2.159c0,.818-.354,1.052-.816,1.052m.057,23.876a1,1,0,0,1-.876-.933,4.671,4.671,0,0,1,.638-1.752l.12-2.219h.236l.112,2.219c.352.817.646,1.169.646,1.752a1,1,0,0,1-.876.933m-.293-30.706v.642h.586v-.642l.466-1.226h-.354l-.287.874-.3-.874h-.583Zm.236-32.634c.228,0,.4-.116.4-.35s-.177-.35-.4-.35-.408.116-.408.35.172.35.408.35m1.4,112.436-.234-1.165h-.116l.116,1.633v1.226h-.579V135.58l.7.059.47,1.519.053.933h.061l.112-.933.471-1.4.7.059v3.794l-.588-.059v-1.224l.122-1.635h-.122l-.228,1.049-.233.935h-.47Zm33.336-73.5a4.335,4.335,0,0,1-3.912-1.167,4.548,4.548,0,0,1-1.167-3.737l-1.458-.759c-4.087,3.736-8.758,6.129-14.012,6.129a21.648,21.648,0,0,1-9.574-2.218l-3.971,5.6V82.572a11.238,11.238,0,0,0,6.421,1.869,12.5,12.5,0,0,0,1.517-.116l1.4,1.691a9.147,9.147,0,0,0-.581,3.445,17.3,17.3,0,0,0,.234,2.568h19.438c.12-1.926,1.578-3.034,4.03-3.27,0-3.033-1.4-8.523-1.4-12.258a19.812,19.812,0,0,1,3.735-10.858Zm-33.1-1.46c-.348,0-.872-.292-.992-1.925.231.349.467.581.817,1.165-.234-.7-.35-.933-.586-1.633.822.817,1.172,1.4,1.172,1.869,0,.349-.175.524-.411.524m-.992,68.595c6.307-3.152,14.363-4.612,20.43-8,6.423-3.621,11.8-11.15,12.147-27.146-2.918-.234-4.028-1.578-4.148-3.27H270.976a17.456,17.456,0,0,1,.175,1.985c0,4.554-1.348,7.706-9.286,10.392Zm2.511-85.292v.7c0,.583-.118.817-.466.817-.234,0-.583-.35-.817-1.169a1.063,1.063,0,0,1-.934,1.169v-.7c0-1.75.35-2.218,1.629-2.218.935,0,1.4.468,1.873,2.218a1.278,1.278,0,0,1-1.285-.817m.234,2.57v.817c0,.466-.116.816-.352.816-.348,0-.7-.466-.816-1.4a1.718,1.718,0,0,1-1.053,1.4c0-1.517.12-2.334.59-2.684a1.044,1.044,0,0,0,1.045.7.8.8,0,0,0,.817-.815,3.157,3.157,0,0,1,1.054,1.984c-.468.232-1.172-.351-1.285-.817m1.285,7.588-.468-.7-1.051-1.283-1.049.349-.586.586h-.232l.232-.935,1.517-.934-.582-2.57c.112.118.234.118.582.118.236,0,.352,0,.465-.118l.236,2.57,2.454.934.35.7h-.236l-.231-.35-1.17-.349.938.817.114.818h-.236l-.348-.584-1.285-1.051.7,1.167.116.817ZM263.737,61.5c-.236,0-.644-.116-1.114-1.167.356.234.234.118.937.584a3.625,3.625,0,0,1-.819-1.052c.935.468,1.344.877,1.344,1.344,0,.175-.12.291-.348.291m.639,37.539a1.871,1.871,0,0,1,0-2.92c0,.817,1.167,1.751.465,2.452.7-.7,1.639.583,2.337.583-.7.818-1.635,1.168-2.8-.115m2.332-41.975c1.639,0,5.313,1.986,8.641,1.986,1.989,0,3.036-.236,4.089-1.051-.238,3.5-1.754,4.437-4.434,4.437-3.624,0-8.76-2.571-10.51-2.571.229-1.984.815-2.8,2.214-2.8m-1.867,78.811.586.116v3.737l-.586-.058Zm1.054-38.121a1.465,1.465,0,0,1-.352-2.219l1.576-3.385h.177l-1.17,3.269c.118.584.582,1.283.118,1.867.82-.584,1.519.234,2.453.234a1.892,1.892,0,0,1-2.8.234m2.8,42.617-1.519-.352v-.758l-.641-.116-.238.758-.638-.118,1.169-3.5c.466.057,1.4.293,1.867.409v.583l-.934-.233v.933l.818.118v.583l-.818-.175v1.109l.934.174ZM267.527,42.7a20.229,20.229,0,0,1-.933,3.853c-.468,0-.817-.7-.817-1.517s.467-2.8.585-3.971c0,1.169.7,1.635,1.165,1.635m2.337.467a28.536,28.536,0,0,1-3.384,9.575.833.833,0,0,1-.354-.7,8.479,8.479,0,0,1,.582-2.336,39.8,39.8,0,0,0,1.751-8.4c.122,1.4.819,1.75,1.4,1.868M267,59.631a.693.693,0,0,0,.876-.761c0-.583-.175-1.108-.813-1.226-.47-.059-.82.293-.82.935A.971.971,0,0,0,267,59.631m-.407-22.887c0-.815.348-1.167.7-1.167s.467.352.467,2.1a25.8,25.8,0,0,1-.236,4.2c-.463,0-1.047-.7-1.047-1.75,0-.7.114-1.869.114-3.388m.061,101.871.523.059v-1.11l.061-.7h-.061l-.177.7Zm.409-79.22c-.234-.057-.234-.407-.234-.759,0-.465,0-.815.234-.758s.232.409.232.817,0,.759-.232.7m.349,37.188a.879.879,0,0,1-.583-.817c0-.7.813-1.4,1.629-1.868V90.044h.179c.231,4.087.292,4.555.292,5.021,0,1.051-.819,1.752-1.517,1.518m4.671-52.6a28.616,28.616,0,0,1-3.737,9.924,1.055,1.055,0,0,1-.352-.817,6.3,6.3,0,0,1,.464-2.219,38.353,38.353,0,0,0,2.338-8.991c.118,1.4.583,1.985,1.287,2.1m-2.4,16.52-.468-1.11a.444.444,0,0,0,.354-.466c0-.35-.234-.583-.818-.758L268.172,58V59.98l.583.175V59.4l.287.876Zm-.645-27.73c.356,0,.586.468.94,3.386-1.052,0-1.4-1.168-1.4-2.219,0-.815.116-1.167.461-1.167M270.1,37.1V39.08a29.428,29.428,0,0,1-.113,3.036,1.6,1.6,0,0,1-1.4-1.751c0-.583.116-1.518.116-2.57a17.38,17.38,0,0,0-.116-2.334c.233,1.051.817,1.635,1.514,1.635m-1.053,21.833c0,.234-.112.35-.287.293v-.76c.236.059.287.233.287.467m1.641-23.7a10.076,10.076,0,0,0-1.4-4.087c-.114-.233-.236-.349-.236-.583a.375.375,0,0,1,.356-.35c.35,0,.7.35.931.7,1.051,1.519,1.635,3.153,1.867,6.189-.931,0-1.281-.468-1.513-1.869m3.613,8.991a30.87,30.87,0,0,1-4.083,11.324.74.74,0,0,1-.585-.7,10.344,10.344,0,0,1,.7-2.452,37,37,0,0,0,2.688-10.156c0,1.4.584,1.984,1.279,1.984m-4.668,94.69a.468.468,0,1,1,.467.466.43.43,0,0,1-.467-.466m.819-78.169c.468.118.992-.059.992-.7a1.232,1.232,0,0,0-.933-1.283l-.642-.233v2.043ZM272.9,35.227a8.746,8.746,0,0,0-2.1-5.02c-.468-.468-.815-.584-.815-.817s.231-.35.465-.35c.7,0,1.985,1.049,2.918,2.8a15.855,15.855,0,0,1,1.287,5.37c-.939,0-1.578-.584-1.751-1.985m19.963,99.245a1.506,1.506,0,0,1-1.694-1.4,1.281,1.281,0,0,1,1.111-1.342c-2.276-.643-6.013,3.562-11.853,3.562-3.387,0-6.888-1.4-10.272-4.205,7.589-2.275,11.968-5.254,16.754-5.254,4.669,0,8.176,3.036,8.176,6.248a2.231,2.231,0,0,1-2.222,2.394M270.856,59.921c0,.468-.173.584-.409.527v-1.4c.236.057.409.232.409.874m1.462-21.892a6.33,6.33,0,0,1,.114,1.519,19.907,19.907,0,0,1-.348,3.619c-1.053-.233-1.169-1.167-1.169-2.1,0-.584.116-1.635.116-2.452,0-.584-.116-1.4-.234-2.452.354,1.519.937,1.868,1.521,1.868m4.139,44.834V78.544c-3.145-.7-5.6-1.519-5.6-3.619h12.378c0,2.1-2.336,2.918-5.607,3.619V83.1Zm-.52-34.092a24.986,24.986,0,0,1-4.089,8.29.541.541,0,0,1-.35-.584,20.16,20.16,0,0,1,1.169-2.92,55.21,55.21,0,0,0,2.215-7.238c0,1.635.354,2.218,1.055,2.452M271.673,61.03l1.167.292v-.349l-.585-.116v-.468l.467.116v-.35l-.467-.059v-.524l.526.175V59.4l-1.108-.291Zm1.458,80.68h-.114c-.933,0-1.283-.817-1.283-2.1,0-1.049.35-1.869,1.047-1.869.82,0,1.167.82,1.167,2.22,0,.7-.113,1.167-.583,1.4l.348-.118.471.118v.7Zm2.452-43.551a5.991,5.991,0,0,0,5.722,3.386c1.285,0,2.34-.584,3.385-.584a1.573,1.573,0,0,1,1.635,1.517,2.781,2.781,0,0,1-.35,1.169l-9.105,14.245h-2.218l-.468-1.169a1.191,1.191,0,0,0,.582-.933c0-2.1-2.448-3.853-2.448-8.056,0-3.737,1.517-5.138,1.517-6.655a3.221,3.221,0,0,0-.47-1.635l.931-1.285Zm-3.265,41.566c0,.7.114,1.4.583,1.4.35,0,.464-.583.464-1.4,0-.7-.114-1.343-.525-1.343s-.522.526-.522,1.343m4.139-54.994c-2.681-.465-3.383-1.167-3.383-1.925s.466-1.517,2.568-2.1v1.344c-.7.174-.933.349-.933.7s.295.527,1.748.817l1.17.234c3.153.643,4.032,1.81,4.379,2.393a1.755,1.755,0,0,1,.175.643c0,.35-.114.7-.234.7-.7,0,.12-1.634-4.32-2.57Zm-1.8-46.584a40.37,40.37,0,0,1-.234,5.136c-1.053-.116-1.167-1.167-1.167-1.984V38.965a19.29,19.29,0,0,0-.12-2.571c.234,1.4.937,1.753,1.521,1.753M273.19,59.513v1.925l.35.059-.057-1.46.526,1.519.7.059V59.688h-.35l.059,1.4-.47-1.458Zm1.055,72.391c.7.115,4.14.174,4.844.174a24.057,24.057,0,0,0,8.171-1.4c-4.67,2.569-9.05,2.335-13.015,2.217a14.322,14.322,0,0,0,6.183,1.519c4.846,0,8.471-3.561,11.035-3.561,1.521,0,2.454.584,2.568,1.985a2.827,2.827,0,0,0,.122-.7c0-3.735-4.321-5.488-7.243-5.488-3.972,0-9.517,3.1-13.484,4.321,4.668,0,9.863-2.334,13.834-2.334a9.966,9.966,0,0,1,3.506.584c-5.14-.818-9.4,2.218-16.521,2.686m-.41-24.4c0,3.853,1.866,5.37,2.216,7.354V100.961l-.815-.815c0,2.684-1.4,3.617-1.4,7.354m3.792-21.833v.467c1.636.35,2.688.7,2.688,1.283h-6.423c0-.583.935-.933,2.565-1.283v-.7Zm-3.1-30.241a5.3,5.3,0,0,1,.234-1.167c.116.7,1.753,1.051,1.753,2.218v.468c.233-.584.819-.584,1.285-.584,1.167,0,1.573.057,1.746-.118a1.9,1.9,0,0,1-1.978,1.635c-1.4,0-3.04-.933-3.04-2.452m1.987,83.657v2.745a.814.814,0,0,1-1.052.815c-.585-.175-.935-.583-.935-1.517v-2.744l.585.233v2.627c0,.468.175.759.466.818.234.059.354-.116.354-.35v-2.8Zm1.925-59.254L279.5,79.6c3.678-.817,5.838-2.1,5.838-4.9,0-2.334-1.871-3.619-4.087-3.619a4.541,4.541,0,0,0-3.388,1.285,2.993,2.993,0,0,1-2.1.933c-.468,0-.819-.234-.819-.467,0-.934,2.919-3.386,6.307-3.386,3.154,0,5.837,1.869,5.837,5.138,0,3.619-3.037,5.37-7.238,6.421l-1.4.234ZM277.1,38.613v1.636a29.311,29.311,0,0,1-.933,7.589c-.586-.234-1.052-.818-1.052-2.1a3.9,3.9,0,0,1,.119-1.167,39.157,39.157,0,0,0,.347-5.138,21.749,21.749,0,0,0-.116-2.686c.35,1.519,1.052,1.869,1.635,1.869m-1.519,14.944a.869.869,0,0,1,.118-.583c.35.7,1.983.817,1.983,1.984.237-1.049,1.866-.583,2.574-1.283a1.751,1.751,0,0,1-1.989,1.867c-1.517,0-2.686-.7-2.686-1.985m1.344,18.332a.409.409,0,1,0-.408.409.4.4,0,0,0,.408-.409m-.642-20.2a1.036,1.036,0,0,1,.12-.584c.465.7,1.63.7,1.63,1.637.35-.935,1.637-.586,2.223-1.053a1.847,1.847,0,0,1-1.873,1.868,1.908,1.908,0,0,1-2.1-1.868m3.265,92.53-1.629-.7v-.877l-.7-.291-.23.818-.531-.234,1.052-3.444,2.041.817v.643l-.931-.409v.933l.705.293v.583l-.705-.292v1.051l.931.35Zm-1.866-42.148a6.489,6.489,0,0,1-1.05-.642v13.543l1.05-1.575Zm.7-50.5c-1.047,0-1.692-.933-1.633-2.1.236.232,1.633.466,1.517,1.633.116-1.167,1.169-.933,1.637-1.517v.584a1.448,1.448,0,0,1-1.521,1.4m-.992,90.255.528.232v-1.869l-.117-.059-.177.761Zm.992-92.124a1.229,1.229,0,0,1-.7-1.167c0-.7.471-1.283.471-2.218a3.3,3.3,0,0,1,1.045,2.1,1.353,1.353,0,0,1-.815,1.283m.939,53.01c-.469-.118-.705-.236-1.055-.352V112.52l1.055-1.576Zm-.53-61.533c0-7.121,3.735-10.156,7.24-10.156,2.918,0,4.9,1.925,4.9,4.377a3.264,3.264,0,0,1-3.387,3.327,3.82,3.82,0,0,1-1.923-.407c1.7,3.853,5.369,6.305,5.369,11.266a9.526,9.526,0,0,1-3.212,7.239c-3.032.467-5.488,2.452-5.716,3.971a4.986,4.986,0,0,1-1.639-3.5,3.563,3.563,0,0,1,2.806-3.5,19.591,19.591,0,0,1-4.44-12.61m5.608-4.787a1.571,1.571,0,0,1,1.516-1.75,1.347,1.347,0,0,1,1.4,1.4c0,.758-.585,1.519-1.87,1.4a3,3,0,0,0,2.1.583,2.508,2.508,0,0,0,2.456-2.627c0-2.1-1.521-3.56-3.971-3.56-3.035,0-6.421,2.8-6.421,9.339A20.122,20.122,0,0,0,284.4,54.143c-2.107.465-3.154,1.635-3.154,3.151a3.164,3.164,0,0,0,.638,2.044,6.332,6.332,0,0,1,4.5-2.92,3.7,3.7,0,0,0-3.794.468c.644-1.4,2.161-1.985,4.028-1.635-5.313-9.691-6.072-15.7-4.494-19.206-.585,3.444-.526,8.7,5.372,18.563.521-7.821-2.918-9.34-3.8-14.826,1.519,5.195,5.315,6.712,4.845,14.885a8.791,8.791,0,0,0,1.578-5.079c0-5.488-5.719-8.991-5.719-13.194m-4.5,66.436v7.3l.992-1.46v-5.778a5.94,5.94,0,0,1-.992-.059m1.342,42.091-.468-1.4-.059-.35h-.234v1.458l-.581-.232v-3.969l.581.232c.936.349,1.172.817,1.172,1.4a1.141,1.141,0,0,1-.468.935l.876,2.275Zm-.177-2.861a.712.712,0,0,0-.584-.759v1.285c.234.116.584-.059.584-.526m1.4-39.346a5.23,5.23,0,0,1-.99.116v4.9l.99-1.46Zm1.173,43.2-1.521-.584V141.36l1.521.7v.583l-.939-.408v.992l.817.293v.583l-.817-.291v1.167l.939.291Zm.464-43.667a10.263,10.263,0,0,0-1.054.35v2.8l1.523-2.219a.612.612,0,0,0-.469-.933m.408,42.207a.467.467,0,1,1,.468.468.429.429,0,0,1-.468-.468m3.209-.641.584.232-.584,3.562-1.049-.408-.468-4.028.643.291.288,2.393v.994l.181.059.057-.994Zm.118-4.67a1.414,1.414,0,0,0,1.458,1.576c1.342,0,2.979-.936,4.2-1.635a4.682,4.682,0,0,0-3.446-1.694c-1.283,0-2.216.7-2.216,1.753m.061-16.463c5.366-1.4,5.429-7.357,7.057-12.377,6.659,4.67,9.109,8.757,9.109,13.428,0,5.428-2.919,7.938-5.833,7.938-1.755,0-2.8-1.05-2.8-2.335a1.669,1.669,0,0,1,1.635-1.634,1.471,1.471,0,0,1,1.519,1.051c.229-.234.229-.468.229-.876,0-1.227-1.283-3.211-1.632-5.195a5.211,5.211,0,0,1-4.671,2.568c-1.87,0-3.91-.934-4.609-2.568m8.873,16.345a8.1,8.1,0,0,0-3.741,1.344c-1.458.817-3.093,1.517-4.61,1.108a18.174,18.174,0,0,0,6.362,1.4c2.1,0,4.321-.817,4.321-2.277,0-.759-.819-1.576-2.332-1.576m-6.718,9.341-1.517-.525V144.1l1.517.525v.585l-.933-.352v.993l.7.177v.583l-.7-.234v1.109l.933.233Zm13.076-24.635a13.424,13.424,0,0,0-5.835-10.508c2.688,4.085,4.2,8.523,3.851,12.785a29.878,29.878,0,0,0-4.844-12.5c.293,4.087-1.222,8.583-3.68,9.4,1.873-1.634,3.331-6.071,2.458-9.459-1.055,5.488-2.747,8.583-5.664,9.693a4.865,4.865,0,0,0,3.092,1.167c2.623,0,4.846-1.809,4.787-6.832v0c.118,6.19,2.4,8.117,2.4,10.451,0,1.869-1.344,2.92-2.863,2.453,2.336,1.519,6.3-.877,6.3-6.655M291.7,148.774l-.409-1.108-.059-.293h-.234V148.6l-.581-.118v-3.794l.7.174a1.334,1.334,0,0,1,1.052,1.4,1.127,1.127,0,0,1-.468.936l.7,1.75Zm-.118-2.627a.6.6,0,0,0-.584-.643v1.344c.352,0,.584-.234.584-.7m3.507-85a13.442,13.442,0,0,1-3.039-8.4c0-5.955,3.562-9.166,6.655-9.225a7.7,7.7,0,0,0-.289,1.985c0,2.685,1.691,3.619,1.691,7.24a7.389,7.389,0,0,1,4.319-1.46,6.493,6.493,0,0,1,2.452.35,7.235,7.235,0,0,1-3.739,7.3,5.834,5.834,0,0,1,2.222,1.576,1.859,1.859,0,0,1,2.1-1.694,3.562,3.562,0,0,1,3.5,3.737c0,2.219-1.864,3.853-4.318,3.853-4.553,0-7.825-5.254-11.556-5.254m-1.872,84.182V147.9c0,.411.12.584.349.584.118,0,.354-.116.354-.468v-2.627h.641V147.9c0,.818-.4,1.285-1,1.285s-1.049-.349-1.049-1.285v-2.684Zm16.815-82.781a2.8,2.8,0,0,0-2.57-2.976,2.174,2.174,0,0,0-.759.116,1,1,0,0,1,1.226.992,1.259,1.259,0,0,1-1.284,1.285c-1.755,0-1.755-2.334-5.49-2.918,4.206-1.753,5.024-4.963,4.906-6.832a6.4,6.4,0,0,0-1.519-.175,6.723,6.723,0,0,0-5.6,3.154,7.844,7.844,0,0,0,.291-2.452c0-3.387-1.633-4.73-1.633-6.948a4.654,4.654,0,0,1,.175-1.344,2.609,2.609,0,0,0-.642.177c-2.568,1.049-4.2,3.851-4.2,8.115a12.883,12.883,0,0,0,1.808,6.362c-.641-5.254-.409-9.4,1.4-12.2a27.163,27.163,0,0,0-.524,12.027,60.224,60.224,0,0,0,1.751-8,26.21,26.21,0,0,1-.877,8.233c1.869-2.218,4.9-4.963,7.588-5.722a23.5,23.5,0,0,0-6.886,6.19c2.041-1.052,3.967-2.337,5.78-3.447a19.281,19.281,0,0,1-5.372,4.028,9.244,9.244,0,0,1,4.557.935c2.682,1.694,4.374,3.27,6.069,1.985-1.577,1.927-3.8.409-6.364-1.226a7.314,7.314,0,0,0-4.321-.933c3.038,1.4,5.954,4.611,9.108,4.611a3.112,3.112,0,0,0,3.387-3.036m-13.546,85.583-.463.118-.47-1.987h-.116l.175,1.4v1.225l-.584.057v-3.562l.643-.057.465,1.4.057.759h.118l.059-.818.35-1.517.7-.116v3.152l-.586.291v-1.167l.177-1.342-.12.059Zm8.292-73.848c0,4.261-2.336,8.348-2.336,12.435a5.286,5.286,0,0,0,.349,1.866A14.182,14.182,0,0,1,295.55,76.21c0-5.956,3.857-8.292,3.857-11.094a1.416,1.416,0,0,0-.122-.7c3.623,1.751,5.49,5.722,5.49,9.866m-6.187.7a46.93,46.93,0,0,1,1.167-7.649c-2.105,3.5-3.272,5.955-3.272,8.875a13.591,13.591,0,0,0,5.02,10.624c-.115-4.319,2.339-8.29,2.339-12.551a11.287,11.287,0,0,0-2.339-7.3,26.4,26.4,0,0,1,.586,5.838A40.821,40.821,0,0,1,300.216,83.1a81.85,81.85,0,0,0,.936-10.276,24.57,24.57,0,0,0-.58-5.488,51.366,51.366,0,0,0-1.165,7.649c-.181,1.694-.356,3.5-.472,5.311a28.552,28.552,0,0,1-.347-5.311m5.717,27.028a13.141,13.141,0,0,1,4.085,9.925c0,3.619-1.515,6.539-3.381,7.531a19.366,19.366,0,0,0-4.437-7.064c-2.1-2.336-3.855-4.788-3.855-9.34a18.6,18.6,0,0,1,1.165-6.424c1.287,2.221,3.973,3.038,6.423,5.372m.234-11.091c.586,0,1.985-.118,2.393-1.167-.116.175-.347.29-.815.29a1.571,1.571,0,0,1-1.517-1.632,2.092,2.092,0,0,1,2.275-2.046c2.454-.116,4.435,2.337,4.435,5.488a6.438,6.438,0,0,1-6.649,6.655c-3.975,0-7.71-3.036-7.71-9.107a16.6,16.6,0,0,1,.35-3.617,8.309,8.309,0,0,0,7.238,5.136m-6.071-1.751c.878,2.743,3.387,5.136,6.132,5.136a4.309,4.309,0,0,0,4.146-2.336,4.364,4.364,0,0,1-4.146,3.269c-3.448,0-5.665-2.45-6.832-5.02.47,4.087,2.684,7.357,6.893,7.357a5.587,5.587,0,0,0,5.718-5.722c0-2.743-1.578-4.727-3.5-4.727a1.317,1.317,0,0,0-1.169.524,1.325,1.325,0,0,1,.879-.293A1.5,1.5,0,0,1,308.044,89c0,1.576-1.287,2.859-3.505,2.859a8.389,8.389,0,0,1-6.071-2.684m-.586,11.441a22.448,22.448,0,0,0-.114,2.453c0,4.436,1.753,6.536,3.5,8.757a25.844,25.844,0,0,1,4.2,6.187,9.26,9.26,0,0,0,1.989-6.071c0-4.787-2.393-9.282-7.763-12.143a20.925,20.925,0,0,1,5.9,14.6,25.519,25.519,0,0,0-6.657-13.9c.877,4.321,2.8,7.825,4.671,11.56a26.157,26.157,0,0,1-5.724-11.442" fill="#fff"/>
    </g>
  </g>
</svg>
